<mxfile host="app.diagrams.net" modified="2024-01-02T17:52:46.527Z" agent="Mozilla/5.0 (Windows NT 10.0; Win64; x64) AppleWebKit/537.36 (KHTML, like Gecko) Chrome/120.0.0.0 Safari/537.36" etag="K2MkjOn0yfrcrTGJi-pK" version="22.1.16" type="device">
  <diagram name="‫עמוד-1‬" id="e8LZpzUhmNvQGA0kBMzK">
    <mxGraphModel dx="1114" dy="592" grid="1" gridSize="10" guides="1" tooltips="1" connect="1" arrows="1" fold="1" page="1" pageScale="1" pageWidth="827" pageHeight="1169" math="0" shadow="0">
      <root>
        <mxCell id="0" />
        <mxCell id="1" parent="0" />
        <mxCell id="iYsQlRKH79npJR0oNIvy-1" value="" style="rounded=0;whiteSpace=wrap;html=1;" parent="1" vertex="1">
          <mxGeometry x="80" y="80" width="120" height="220" as="geometry" />
        </mxCell>
        <mxCell id="iYsQlRKH79npJR0oNIvy-2" value="Login title ..." style="text;html=1;strokeColor=none;fillColor=none;align=center;verticalAlign=middle;whiteSpace=wrap;rounded=0;" parent="1" vertex="1">
          <mxGeometry x="85" y="90" width="110" height="30" as="geometry" />
        </mxCell>
        <mxCell id="iYsQlRKH79npJR0oNIvy-3" value="email**" style="rounded=0;whiteSpace=wrap;html=1;" parent="1" vertex="1">
          <mxGeometry x="115" y="130" width="50" height="30" as="geometry" />
        </mxCell>
        <mxCell id="iYsQlRKH79npJR0oNIvy-4" value="password" style="rounded=0;whiteSpace=wrap;html=1;" parent="1" vertex="1">
          <mxGeometry x="110" y="180" width="55" height="30" as="geometry" />
        </mxCell>
        <mxCell id="iYsQlRKH79npJR0oNIvy-5" value="login as owner" style="rounded=0;whiteSpace=wrap;html=1;" parent="1" vertex="1">
          <mxGeometry x="90" y="220" width="55" height="40" as="geometry" />
        </mxCell>
        <mxCell id="iYsQlRKH79npJR0oNIvy-6" value="login as customer" style="rounded=0;whiteSpace=wrap;html=1;" parent="1" vertex="1">
          <mxGeometry x="145" y="220" width="50" height="30" as="geometry" />
        </mxCell>
        <mxCell id="iYsQlRKH79npJR0oNIvy-9" value="" style="shape=flexArrow;endArrow=classic;html=1;rounded=0;" parent="1" edge="1">
          <mxGeometry width="50" height="50" relative="1" as="geometry">
            <mxPoint x="210" y="180" as="sourcePoint" />
            <mxPoint x="280" y="180" as="targetPoint" />
            <Array as="points">
              <mxPoint x="230" y="180" />
            </Array>
          </mxGeometry>
        </mxCell>
        <mxCell id="iYsQlRKH79npJR0oNIvy-10" value="" style="rounded=0;whiteSpace=wrap;html=1;" parent="1" vertex="1">
          <mxGeometry x="300" y="80" width="120" height="200" as="geometry" />
        </mxCell>
        <mxCell id="iYsQlRKH79npJR0oNIvy-16" value="store owner" style="text;html=1;strokeColor=none;fillColor=none;align=center;verticalAlign=middle;whiteSpace=wrap;rounded=0;" parent="1" vertex="1">
          <mxGeometry x="220" y="120" width="60" height="30" as="geometry" />
        </mxCell>
        <mxCell id="iYsQlRKH79npJR0oNIvy-17" value="&quot;my stores&quot; tile ..." style="text;html=1;strokeColor=none;fillColor=none;align=center;verticalAlign=middle;whiteSpace=wrap;rounded=0;" parent="1" vertex="1">
          <mxGeometry x="290" y="100" width="140" height="30" as="geometry" />
        </mxCell>
        <mxCell id="iYsQlRKH79npJR0oNIvy-18" value="Project title ..." style="text;html=1;strokeColor=none;fillColor=none;align=center;verticalAlign=middle;whiteSpace=wrap;rounded=0;" parent="1" vertex="1">
          <mxGeometry x="270" y="70" width="180" height="30" as="geometry" />
        </mxCell>
        <mxCell id="iYsQlRKH79npJR0oNIvy-19" value="" style="endArrow=none;html=1;rounded=0;exitX=0.059;exitY=0.998;exitDx=0;exitDy=0;exitPerimeter=0;entryX=0.931;entryY=0.998;entryDx=0;entryDy=0;entryPerimeter=0;" parent="1" source="iYsQlRKH79npJR0oNIvy-17" target="iYsQlRKH79npJR0oNIvy-17" edge="1">
          <mxGeometry width="50" height="50" relative="1" as="geometry">
            <mxPoint x="410" y="210" as="sourcePoint" />
            <mxPoint x="460" y="160" as="targetPoint" />
          </mxGeometry>
        </mxCell>
        <mxCell id="iYsQlRKH79npJR0oNIvy-20" value="KSP LOGO" style="rounded=0;whiteSpace=wrap;html=1;" parent="1" vertex="1">
          <mxGeometry x="310" y="140" width="30" height="30" as="geometry" />
        </mxCell>
        <mxCell id="iYsQlRKH79npJR0oNIvy-22" value="NIKE LOGO" style="rounded=0;whiteSpace=wrap;html=1;" parent="1" vertex="1">
          <mxGeometry x="360" y="140" width="30" height="30" as="geometry" />
        </mxCell>
        <mxCell id="iYsQlRKH79npJR0oNIvy-23" value="Tachles LOGO" style="rounded=0;whiteSpace=wrap;html=1;" parent="1" vertex="1">
          <mxGeometry x="310" y="190" width="50" height="30" as="geometry" />
        </mxCell>
        <mxCell id="iYsQlRKH79npJR0oNIvy-24" value="+" style="ellipse;whiteSpace=wrap;html=1;aspect=fixed;" parent="1" vertex="1">
          <mxGeometry x="300" y="260" width="20" height="20" as="geometry" />
        </mxCell>
        <mxCell id="iYsQlRKH79npJR0oNIvy-25" value="" style="endArrow=classic;html=1;rounded=0;entryX=0;entryY=1;entryDx=0;entryDy=0;exitX=0.5;exitY=0;exitDx=0;exitDy=0;" parent="1" source="iYsQlRKH79npJR0oNIvy-26" target="iYsQlRKH79npJR0oNIvy-24" edge="1">
          <mxGeometry width="50" height="50" relative="1" as="geometry">
            <mxPoint x="220" y="320" as="sourcePoint" />
            <mxPoint x="250" y="280" as="targetPoint" />
          </mxGeometry>
        </mxCell>
        <mxCell id="iYsQlRKH79npJR0oNIvy-26" value="&quot;+&quot; button to create a new store" style="text;html=1;strokeColor=none;fillColor=none;align=center;verticalAlign=middle;whiteSpace=wrap;rounded=0;" parent="1" vertex="1">
          <mxGeometry x="240" y="300" width="100" height="50" as="geometry" />
        </mxCell>
        <mxCell id="iYsQlRKH79npJR0oNIvy-27" value="" style="shape=flexArrow;endArrow=classic;html=1;rounded=0;" parent="1" edge="1">
          <mxGeometry width="50" height="50" relative="1" as="geometry">
            <mxPoint x="430" y="190" as="sourcePoint" />
            <mxPoint x="510" y="190" as="targetPoint" />
          </mxGeometry>
        </mxCell>
        <mxCell id="iYsQlRKH79npJR0oNIvy-28" value="Project title ..." style="text;html=1;strokeColor=none;fillColor=none;align=center;verticalAlign=middle;whiteSpace=wrap;rounded=0;" parent="1" vertex="1">
          <mxGeometry x="50" y="70" width="180" height="30" as="geometry" />
        </mxCell>
        <mxCell id="iYsQlRKH79npJR0oNIvy-29" value="enter exising store" style="text;html=1;strokeColor=none;fillColor=none;align=center;verticalAlign=middle;whiteSpace=wrap;rounded=0;" parent="1" vertex="1">
          <mxGeometry x="430" y="130" width="80" height="30" as="geometry" />
        </mxCell>
        <mxCell id="iYsQlRKH79npJR0oNIvy-31" value="" style="rounded=0;whiteSpace=wrap;html=1;" parent="1" vertex="1">
          <mxGeometry x="520" y="80" width="120" height="200" as="geometry" />
        </mxCell>
        <mxCell id="iYsQlRKH79npJR0oNIvy-32" value="Project title ..." style="text;html=1;strokeColor=none;fillColor=none;align=center;verticalAlign=middle;whiteSpace=wrap;rounded=0;" parent="1" vertex="1">
          <mxGeometry x="500" y="70" width="180" height="30" as="geometry" />
        </mxCell>
        <mxCell id="iYsQlRKH79npJR0oNIvy-33" value="&quot;Tachles&quot; Store title ..." style="text;html=1;strokeColor=none;fillColor=none;align=center;verticalAlign=middle;whiteSpace=wrap;rounded=0;" parent="1" vertex="1">
          <mxGeometry x="510" y="100" width="140" height="30" as="geometry" />
        </mxCell>
        <mxCell id="iYsQlRKH79npJR0oNIvy-34" value="" style="endArrow=none;html=1;rounded=0;exitX=0.059;exitY=0.998;exitDx=0;exitDy=0;exitPerimeter=0;entryX=0.931;entryY=0.998;entryDx=0;entryDy=0;entryPerimeter=0;" parent="1" edge="1">
          <mxGeometry width="50" height="50" relative="1" as="geometry">
            <mxPoint x="80" y="90" as="sourcePoint" />
            <mxPoint x="202" y="90" as="targetPoint" />
          </mxGeometry>
        </mxCell>
        <mxCell id="iYsQlRKH79npJR0oNIvy-35" value="" style="endArrow=none;html=1;rounded=0;exitX=0.059;exitY=0.998;exitDx=0;exitDy=0;exitPerimeter=0;entryX=0.931;entryY=0.998;entryDx=0;entryDy=0;entryPerimeter=0;" parent="1" edge="1">
          <mxGeometry width="50" height="50" relative="1" as="geometry">
            <mxPoint x="300" y="99.31" as="sourcePoint" />
            <mxPoint x="422" y="99.31" as="targetPoint" />
          </mxGeometry>
        </mxCell>
        <mxCell id="iYsQlRKH79npJR0oNIvy-36" value="" style="endArrow=none;html=1;rounded=0;exitX=0.059;exitY=0.998;exitDx=0;exitDy=0;exitPerimeter=0;entryX=0.931;entryY=0.998;entryDx=0;entryDy=0;entryPerimeter=0;" parent="1" edge="1">
          <mxGeometry width="50" height="50" relative="1" as="geometry">
            <mxPoint x="518" y="99.31" as="sourcePoint" />
            <mxPoint x="640" y="99.31" as="targetPoint" />
          </mxGeometry>
        </mxCell>
        <mxCell id="iYsQlRKH79npJR0oNIvy-37" value="" style="endArrow=none;html=1;rounded=0;exitX=0.059;exitY=0.998;exitDx=0;exitDy=0;exitPerimeter=0;entryX=0.931;entryY=0.998;entryDx=0;entryDy=0;entryPerimeter=0;" parent="1" edge="1">
          <mxGeometry width="50" height="50" relative="1" as="geometry">
            <mxPoint x="518" y="129.31" as="sourcePoint" />
            <mxPoint x="640" y="129.31" as="targetPoint" />
          </mxGeometry>
        </mxCell>
        <mxCell id="iYsQlRKH79npJR0oNIvy-38" value="Shum" style="rounded=0;whiteSpace=wrap;html=1;" parent="1" vertex="1">
          <mxGeometry x="530" y="150" width="100" height="20" as="geometry" />
        </mxCell>
        <mxCell id="iYsQlRKH79npJR0oNIvy-39" value="Items title ..." style="text;html=1;strokeColor=none;fillColor=none;align=center;verticalAlign=middle;whiteSpace=wrap;rounded=0;" parent="1" vertex="1">
          <mxGeometry x="510" y="120" width="140" height="30" as="geometry" />
        </mxCell>
        <mxCell id="iYsQlRKH79npJR0oNIvy-43" value="Chili" style="rounded=0;whiteSpace=wrap;html=1;" parent="1" vertex="1">
          <mxGeometry x="530" y="180" width="100" height="20" as="geometry" />
        </mxCell>
        <mxCell id="iYsQlRKH79npJR0oNIvy-44" value="Pesto" style="rounded=0;whiteSpace=wrap;html=1;" parent="1" vertex="1">
          <mxGeometry x="530" y="210" width="100" height="20" as="geometry" />
        </mxCell>
        <mxCell id="iYsQlRKH79npJR0oNIvy-45" value="&lt;font style=&quot;font-size: 19px;&quot;&gt;...&lt;/font&gt;" style="text;html=1;strokeColor=none;fillColor=none;align=center;verticalAlign=middle;whiteSpace=wrap;rounded=0;" parent="1" vertex="1">
          <mxGeometry x="550" y="235" width="60" height="30" as="geometry" />
        </mxCell>
        <mxCell id="iYsQlRKH79npJR0oNIvy-46" value="" style="shape=flexArrow;endArrow=classic;html=1;rounded=0;" parent="1" edge="1">
          <mxGeometry width="50" height="50" relative="1" as="geometry">
            <mxPoint x="650" y="190" as="sourcePoint" />
            <mxPoint x="730" y="190" as="targetPoint" />
            <Array as="points">
              <mxPoint x="680" y="190" />
            </Array>
          </mxGeometry>
        </mxCell>
        <mxCell id="iYsQlRKH79npJR0oNIvy-47" value="" style="rounded=0;whiteSpace=wrap;html=1;" parent="1" vertex="1">
          <mxGeometry x="740" y="80" width="120" height="200" as="geometry" />
        </mxCell>
        <mxCell id="iYsQlRKH79npJR0oNIvy-48" value="Project title ..." style="text;html=1;strokeColor=none;fillColor=none;align=center;verticalAlign=middle;whiteSpace=wrap;rounded=0;" parent="1" vertex="1">
          <mxGeometry x="710" y="75" width="180" height="30" as="geometry" />
        </mxCell>
        <mxCell id="iYsQlRKH79npJR0oNIvy-49" value="" style="endArrow=none;html=1;rounded=0;exitX=0.059;exitY=0.998;exitDx=0;exitDy=0;exitPerimeter=0;entryX=0.931;entryY=0.998;entryDx=0;entryDy=0;entryPerimeter=0;" parent="1" edge="1">
          <mxGeometry width="50" height="50" relative="1" as="geometry">
            <mxPoint x="738" y="99.66" as="sourcePoint" />
            <mxPoint x="860" y="99.66" as="targetPoint" />
          </mxGeometry>
        </mxCell>
        <mxCell id="iYsQlRKH79npJR0oNIvy-50" value="&quot;Tachles&quot; Store title ..." style="text;html=1;strokeColor=none;fillColor=none;align=center;verticalAlign=middle;whiteSpace=wrap;rounded=0;" parent="1" vertex="1">
          <mxGeometry x="730" y="95" width="140" height="30" as="geometry" />
        </mxCell>
        <mxCell id="iYsQlRKH79npJR0oNIvy-51" value="" style="endArrow=none;html=1;rounded=0;entryX=0.921;entryY=0.986;entryDx=0;entryDy=0;entryPerimeter=0;exitX=0.071;exitY=1;exitDx=0;exitDy=0;exitPerimeter=0;" parent="1" source="iYsQlRKH79npJR0oNIvy-50" target="iYsQlRKH79npJR0oNIvy-50" edge="1">
          <mxGeometry width="50" height="50" relative="1" as="geometry">
            <mxPoint x="770" y="175" as="sourcePoint" />
            <mxPoint x="820" y="125" as="targetPoint" />
          </mxGeometry>
        </mxCell>
        <mxCell id="iYsQlRKH79npJR0oNIvy-52" value="Shum - Info" style="text;html=1;strokeColor=none;fillColor=none;align=center;verticalAlign=middle;whiteSpace=wrap;rounded=0;" parent="1" vertex="1">
          <mxGeometry x="730" y="125" width="140" height="30" as="geometry" />
        </mxCell>
        <mxCell id="iYsQlRKH79npJR0oNIvy-53" value="" style="rounded=0;whiteSpace=wrap;html=1;" parent="1" vertex="1">
          <mxGeometry x="745" y="155" width="110" height="20" as="geometry" />
        </mxCell>
        <mxCell id="iYsQlRKH79npJR0oNIvy-54" value="Quantity" style="text;html=1;strokeColor=none;fillColor=none;align=center;verticalAlign=middle;whiteSpace=wrap;rounded=0;" parent="1" vertex="1">
          <mxGeometry x="740" y="150" width="60" height="30" as="geometry" />
        </mxCell>
        <mxCell id="iYsQlRKH79npJR0oNIvy-55" value="&amp;lt;current&amp;gt;" style="text;html=1;strokeColor=none;fillColor=none;align=center;verticalAlign=middle;whiteSpace=wrap;rounded=0;" parent="1" vertex="1">
          <mxGeometry x="800" y="150" width="60" height="30" as="geometry" />
        </mxCell>
        <mxCell id="iYsQlRKH79npJR0oNIvy-57" value="" style="rounded=0;whiteSpace=wrap;html=1;" parent="1" vertex="1">
          <mxGeometry x="747.5" y="180" width="105" height="20" as="geometry" />
        </mxCell>
        <mxCell id="iYsQlRKH79npJR0oNIvy-63" value="Price" style="text;html=1;strokeColor=none;fillColor=none;align=center;verticalAlign=middle;whiteSpace=wrap;rounded=0;" parent="1" vertex="1">
          <mxGeometry x="740" y="175" width="60" height="30" as="geometry" />
        </mxCell>
        <mxCell id="iYsQlRKH79npJR0oNIvy-66" value="EDIT" style="text;html=1;strokeColor=none;fillColor=none;align=center;verticalAlign=middle;whiteSpace=wrap;rounded=0;" parent="1" vertex="1">
          <mxGeometry x="795" y="175" width="60" height="30" as="geometry" />
        </mxCell>
        <mxCell id="iYsQlRKH79npJR0oNIvy-67" value="" style="shape=flexArrow;endArrow=classic;html=1;rounded=0;" parent="1" edge="1">
          <mxGeometry width="50" height="50" relative="1" as="geometry">
            <mxPoint x="870" y="189.66" as="sourcePoint" />
            <mxPoint x="930" y="189.66" as="targetPoint" />
          </mxGeometry>
        </mxCell>
        <mxCell id="iYsQlRKH79npJR0oNIvy-72" value="Show item info" style="text;html=1;strokeColor=none;fillColor=none;align=center;verticalAlign=middle;whiteSpace=wrap;rounded=0;" parent="1" vertex="1">
          <mxGeometry x="630" y="140" width="120" height="30" as="geometry" />
        </mxCell>
        <mxCell id="iYsQlRKH79npJR0oNIvy-73" value="edit item info" style="text;html=1;strokeColor=none;fillColor=none;align=center;verticalAlign=middle;whiteSpace=wrap;rounded=0;" parent="1" vertex="1">
          <mxGeometry x="850" y="140" width="100" height="30" as="geometry" />
        </mxCell>
        <mxCell id="iYsQlRKH79npJR0oNIvy-74" value="" style="rounded=0;whiteSpace=wrap;html=1;" parent="1" vertex="1">
          <mxGeometry x="940" y="90" width="120" height="200" as="geometry" />
        </mxCell>
        <mxCell id="iYsQlRKH79npJR0oNIvy-75" value="" style="rounded=0;whiteSpace=wrap;html=1;" parent="1" vertex="1">
          <mxGeometry x="945" y="157.5" width="110" height="45" as="geometry" />
        </mxCell>
        <mxCell id="iYsQlRKH79npJR0oNIvy-76" value="&amp;lt;enter new value&amp;gt;" style="text;html=1;strokeColor=none;fillColor=none;align=center;verticalAlign=middle;whiteSpace=wrap;rounded=0;" parent="1" vertex="1">
          <mxGeometry x="980" y="165" width="65" height="30" as="geometry" />
        </mxCell>
        <mxCell id="iYsQlRKH79npJR0oNIvy-79" value="Project title ..." style="text;html=1;strokeColor=none;fillColor=none;align=center;verticalAlign=middle;whiteSpace=wrap;rounded=0;" parent="1" vertex="1">
          <mxGeometry x="910" y="80" width="180" height="30" as="geometry" />
        </mxCell>
        <mxCell id="iYsQlRKH79npJR0oNIvy-80" value="" style="endArrow=none;html=1;rounded=0;exitX=0.153;exitY=0.929;exitDx=0;exitDy=0;exitPerimeter=0;" parent="1" source="iYsQlRKH79npJR0oNIvy-79" edge="1">
          <mxGeometry width="50" height="50" relative="1" as="geometry">
            <mxPoint x="1010" y="155" as="sourcePoint" />
            <mxPoint x="1060" y="105" as="targetPoint" />
          </mxGeometry>
        </mxCell>
        <mxCell id="iYsQlRKH79npJR0oNIvy-81" value="&quot;Tachles&quot; Store title ..." style="text;html=1;strokeColor=none;fillColor=none;align=center;verticalAlign=middle;whiteSpace=wrap;rounded=0;" parent="1" vertex="1">
          <mxGeometry x="930" y="100" width="140" height="30" as="geometry" />
        </mxCell>
        <mxCell id="iYsQlRKH79npJR0oNIvy-82" value="" style="endArrow=none;html=1;rounded=0;entryX=1.008;entryY=0.172;entryDx=0;entryDy=0;entryPerimeter=0;exitX=0.002;exitY=0.21;exitDx=0;exitDy=0;exitPerimeter=0;" parent="1" source="iYsQlRKH79npJR0oNIvy-74" target="iYsQlRKH79npJR0oNIvy-74" edge="1">
          <mxGeometry width="50" height="50" relative="1" as="geometry">
            <mxPoint x="1100" y="160" as="sourcePoint" />
            <mxPoint x="940" y="170" as="targetPoint" />
          </mxGeometry>
        </mxCell>
        <mxCell id="iYsQlRKH79npJR0oNIvy-83" value="Shum - Info" style="text;html=1;strokeColor=none;fillColor=none;align=center;verticalAlign=middle;whiteSpace=wrap;rounded=0;" parent="1" vertex="1">
          <mxGeometry x="930" y="130" width="140" height="30" as="geometry" />
        </mxCell>
        <mxCell id="iYsQlRKH79npJR0oNIvy-86" value="" style="endArrow=classic;html=1;rounded=0;entryX=1;entryY=0.5;entryDx=0;entryDy=0;" parent="1" source="iYsQlRKH79npJR0oNIvy-87" target="iYsQlRKH79npJR0oNIvy-76" edge="1">
          <mxGeometry width="50" height="50" relative="1" as="geometry">
            <mxPoint x="1090" y="150" as="sourcePoint" />
            <mxPoint x="1180" y="120" as="targetPoint" />
          </mxGeometry>
        </mxCell>
        <mxCell id="iYsQlRKH79npJR0oNIvy-87" value="When clicking on the current value, it opens a keyboard to enter new value" style="text;html=1;strokeColor=none;fillColor=none;align=center;verticalAlign=middle;whiteSpace=wrap;rounded=0;" parent="1" vertex="1">
          <mxGeometry x="1060" y="80" width="150" height="30" as="geometry" />
        </mxCell>
        <mxCell id="iYsQlRKH79npJR0oNIvy-88" value="" style="rounded=0;whiteSpace=wrap;html=1;" parent="1" vertex="1">
          <mxGeometry x="1217" y="90" width="120" height="200" as="geometry" />
        </mxCell>
        <mxCell id="iYsQlRKH79npJR0oNIvy-89" value="" style="rounded=0;whiteSpace=wrap;html=1;" parent="1" vertex="1">
          <mxGeometry x="1222" y="157.5" width="110" height="45" as="geometry" />
        </mxCell>
        <mxCell id="iYsQlRKH79npJR0oNIvy-91" value="" style="endArrow=none;html=1;rounded=0;exitX=0.153;exitY=0.929;exitDx=0;exitDy=0;exitPerimeter=0;" parent="1" edge="1">
          <mxGeometry width="50" height="50" relative="1" as="geometry">
            <mxPoint x="1220" y="108" as="sourcePoint" />
            <mxPoint x="1342" y="105" as="targetPoint" />
          </mxGeometry>
        </mxCell>
        <mxCell id="iYsQlRKH79npJR0oNIvy-92" value="" style="endArrow=none;html=1;rounded=0;entryX=1.008;entryY=0.172;entryDx=0;entryDy=0;entryPerimeter=0;exitX=0.002;exitY=0.21;exitDx=0;exitDy=0;exitPerimeter=0;" parent="1" source="iYsQlRKH79npJR0oNIvy-88" target="iYsQlRKH79npJR0oNIvy-88" edge="1">
          <mxGeometry width="50" height="50" relative="1" as="geometry">
            <mxPoint x="1382" y="160" as="sourcePoint" />
            <mxPoint x="1222" y="170" as="targetPoint" />
          </mxGeometry>
        </mxCell>
        <mxCell id="iYsQlRKH79npJR0oNIvy-93" value="" style="shape=flexArrow;endArrow=classic;html=1;rounded=0;" parent="1" edge="1">
          <mxGeometry width="50" height="50" relative="1" as="geometry">
            <mxPoint x="1100" y="190" as="sourcePoint" />
            <mxPoint x="1160" y="190" as="targetPoint" />
          </mxGeometry>
        </mxCell>
        <mxCell id="iYsQlRKH79npJR0oNIvy-94" value="admit changes" style="text;html=1;strokeColor=none;fillColor=none;align=center;verticalAlign=middle;whiteSpace=wrap;rounded=0;" parent="1" vertex="1">
          <mxGeometry x="1100" y="140" width="60" height="30" as="geometry" />
        </mxCell>
        <mxCell id="iYsQlRKH79npJR0oNIvy-95" value="Text" style="text;html=1;strokeColor=none;fillColor=none;align=center;verticalAlign=middle;whiteSpace=wrap;rounded=0;" parent="1" vertex="1">
          <mxGeometry x="1240" y="210" width="60" height="30" as="geometry" />
        </mxCell>
        <mxCell id="iYsQlRKH79npJR0oNIvy-96" value="" style="rounded=0;whiteSpace=wrap;html=1;" parent="1" vertex="1">
          <mxGeometry x="1227" y="145" width="100" height="120" as="geometry" />
        </mxCell>
        <mxCell id="iYsQlRKH79npJR0oNIvy-97" value="admit chages?&lt;br&gt;&lt;br&gt;change QUANTITY of SHUM from X to Y." style="text;html=1;strokeColor=none;fillColor=none;align=center;verticalAlign=middle;whiteSpace=wrap;rounded=0;" parent="1" vertex="1">
          <mxGeometry x="1232.5" y="175" width="89" height="30" as="geometry" />
        </mxCell>
        <mxCell id="iYsQlRKH79npJR0oNIvy-98" value="N" style="rounded=0;whiteSpace=wrap;html=1;" parent="1" vertex="1">
          <mxGeometry x="1281.5" y="235" width="40" height="20" as="geometry" />
        </mxCell>
        <mxCell id="iYsQlRKH79npJR0oNIvy-99" value="Y" style="rounded=0;whiteSpace=wrap;html=1;" parent="1" vertex="1">
          <mxGeometry x="1232.5" y="235" width="40" height="20" as="geometry" />
        </mxCell>
        <mxCell id="iYsQlRKH79npJR0oNIvy-100" value="Project title ..." style="text;html=1;strokeColor=none;fillColor=none;align=center;verticalAlign=middle;whiteSpace=wrap;rounded=0;" parent="1" vertex="1">
          <mxGeometry x="1180" y="80" width="180" height="30" as="geometry" />
        </mxCell>
        <mxCell id="iYsQlRKH79npJR0oNIvy-101" value="&quot;Tachles&quot; Store title ..." style="text;html=1;strokeColor=none;fillColor=none;align=center;verticalAlign=middle;whiteSpace=wrap;rounded=0;" parent="1" vertex="1">
          <mxGeometry x="1217" y="100" width="140" height="30" as="geometry" />
        </mxCell>
        <mxCell id="iYsQlRKH79npJR0oNIvy-102" value="Shum - Info" style="text;html=1;strokeColor=none;fillColor=none;align=center;verticalAlign=middle;whiteSpace=wrap;rounded=0;" parent="1" vertex="1">
          <mxGeometry x="1207" y="120" width="140" height="30" as="geometry" />
        </mxCell>
        <mxCell id="iYsQlRKH79npJR0oNIvy-103" value="" style="shape=flexArrow;endArrow=classic;html=1;rounded=0;" parent="1" edge="1">
          <mxGeometry width="50" height="50" relative="1" as="geometry">
            <mxPoint x="360" y="290" as="sourcePoint" />
            <mxPoint x="360" y="360" as="targetPoint" />
          </mxGeometry>
        </mxCell>
        <mxCell id="iYsQlRKH79npJR0oNIvy-104" value="" style="rounded=0;whiteSpace=wrap;html=1;" parent="1" vertex="1">
          <mxGeometry x="300" y="370" width="120" height="200" as="geometry" />
        </mxCell>
        <mxCell id="iYsQlRKH79npJR0oNIvy-107" value="+" style="ellipse;whiteSpace=wrap;html=1;aspect=fixed;" parent="1" vertex="1">
          <mxGeometry x="620" y="260" width="20" height="20" as="geometry" />
        </mxCell>
        <mxCell id="iYsQlRKH79npJR0oNIvy-108" value="" style="endArrow=classic;html=1;rounded=0;exitX=0.5;exitY=0;exitDx=0;exitDy=0;" parent="1" source="iYsQlRKH79npJR0oNIvy-109" edge="1">
          <mxGeometry width="50" height="50" relative="1" as="geometry">
            <mxPoint x="620" y="326.5" as="sourcePoint" />
            <mxPoint x="650" y="280" as="targetPoint" />
          </mxGeometry>
        </mxCell>
        <mxCell id="iYsQlRKH79npJR0oNIvy-109" value="&quot;+&quot; button to create a new item of the store" style="text;html=1;strokeColor=none;fillColor=none;align=center;verticalAlign=middle;whiteSpace=wrap;rounded=0;" parent="1" vertex="1">
          <mxGeometry x="640" y="306.5" width="100" height="50" as="geometry" />
        </mxCell>
        <mxCell id="iYsQlRKH79npJR0oNIvy-110" value="Project title ..." style="text;html=1;strokeColor=none;fillColor=none;align=center;verticalAlign=middle;whiteSpace=wrap;rounded=0;" parent="1" vertex="1">
          <mxGeometry x="270" y="360" width="180" height="30" as="geometry" />
        </mxCell>
        <mxCell id="iYsQlRKH79npJR0oNIvy-111" value="" style="endArrow=none;html=1;rounded=0;exitX=0.161;exitY=0.929;exitDx=0;exitDy=0;exitPerimeter=0;entryX=0.831;entryY=1.021;entryDx=0;entryDy=0;entryPerimeter=0;" parent="1" source="iYsQlRKH79npJR0oNIvy-110" target="iYsQlRKH79npJR0oNIvy-110" edge="1">
          <mxGeometry width="50" height="50" relative="1" as="geometry">
            <mxPoint x="410" y="450" as="sourcePoint" />
            <mxPoint x="460" y="400" as="targetPoint" />
          </mxGeometry>
        </mxCell>
        <mxCell id="iYsQlRKH79npJR0oNIvy-112" value="Create new store ..." style="text;html=1;strokeColor=none;fillColor=none;align=center;verticalAlign=middle;whiteSpace=wrap;rounded=0;" parent="1" vertex="1">
          <mxGeometry x="280" y="380" width="160" height="30" as="geometry" />
        </mxCell>
        <mxCell id="iYsQlRKH79npJR0oNIvy-113" value="&lt;b&gt;&lt;u&gt;צריך להמשיך מכאן..&lt;br&gt;&lt;br&gt;הוספת חנות חדשה למנהל קיים&lt;br&gt;&lt;/u&gt;&lt;/b&gt;" style="text;html=1;strokeColor=none;fillColor=none;align=center;verticalAlign=middle;whiteSpace=wrap;rounded=0;" parent="1" vertex="1">
          <mxGeometry x="300" y="410" width="120" height="100" as="geometry" />
        </mxCell>
        <mxCell id="iYsQlRKH79npJR0oNIvy-114" value="register" style="rounded=0;whiteSpace=wrap;html=1;" parent="1" vertex="1">
          <mxGeometry x="80" y="265" width="120" height="20" as="geometry" />
        </mxCell>
        <mxCell id="fFiur42xbr7qA2kt1tQ9-1" value="" style="shape=flexArrow;endArrow=classic;html=1;rounded=0;exitX=0.456;exitY=1.026;exitDx=0;exitDy=0;exitPerimeter=0;" edge="1" parent="1">
          <mxGeometry width="50" height="50" relative="1" as="geometry">
            <mxPoint x="592.36" y="285.20000000000005" as="sourcePoint" />
            <mxPoint x="592" y="380" as="targetPoint" />
          </mxGeometry>
        </mxCell>
        <mxCell id="fFiur42xbr7qA2kt1tQ9-2" value="" style="rounded=0;whiteSpace=wrap;html=1;" vertex="1" parent="1">
          <mxGeometry x="540" y="384.5" width="120" height="200" as="geometry" />
        </mxCell>
        <mxCell id="fFiur42xbr7qA2kt1tQ9-3" value="" style="endArrow=none;html=1;rounded=0;exitX=0.161;exitY=0.929;exitDx=0;exitDy=0;exitPerimeter=0;entryX=0.831;entryY=1.021;entryDx=0;entryDy=0;entryPerimeter=0;" edge="1" parent="1">
          <mxGeometry width="50" height="50" relative="1" as="geometry">
            <mxPoint x="539" y="402.5" as="sourcePoint" />
            <mxPoint x="660" y="405.5" as="targetPoint" />
          </mxGeometry>
        </mxCell>
        <mxCell id="fFiur42xbr7qA2kt1tQ9-5" value="&lt;b&gt;&lt;u&gt;צריך להמשיך מכאן..&lt;br&gt;&lt;br&gt;הוספת מוצר חדש לתוך חנות קיימת&lt;br&gt;&lt;/u&gt;&lt;/b&gt;" style="text;html=1;strokeColor=none;fillColor=none;align=center;verticalAlign=middle;whiteSpace=wrap;rounded=0;" vertex="1" parent="1">
          <mxGeometry x="540" y="424.5" width="120" height="100" as="geometry" />
        </mxCell>
        <mxCell id="fFiur42xbr7qA2kt1tQ9-6" value="Project title ..." style="text;html=1;strokeColor=none;fillColor=none;align=center;verticalAlign=middle;whiteSpace=wrap;rounded=0;" vertex="1" parent="1">
          <mxGeometry x="510" y="380" width="180" height="30" as="geometry" />
        </mxCell>
        <mxCell id="fFiur42xbr7qA2kt1tQ9-7" value="&quot;Tachles&quot; Store title ..." style="text;html=1;strokeColor=none;fillColor=none;align=center;verticalAlign=middle;whiteSpace=wrap;rounded=0;" vertex="1" parent="1">
          <mxGeometry x="530" y="400" width="140" height="30" as="geometry" />
        </mxCell>
        <mxCell id="fFiur42xbr7qA2kt1tQ9-8" value="" style="endArrow=none;html=1;rounded=0;exitX=0.064;exitY=0.975;exitDx=0;exitDy=0;exitPerimeter=0;entryX=0.916;entryY=0.975;entryDx=0;entryDy=0;entryPerimeter=0;" edge="1" parent="1" source="fFiur42xbr7qA2kt1tQ9-7" target="fFiur42xbr7qA2kt1tQ9-7">
          <mxGeometry width="50" height="50" relative="1" as="geometry">
            <mxPoint x="620" y="450" as="sourcePoint" />
            <mxPoint x="670" y="400" as="targetPoint" />
          </mxGeometry>
        </mxCell>
        <mxCell id="fFiur42xbr7qA2kt1tQ9-9" value="" style="shape=flexArrow;endArrow=classic;html=1;rounded=0;" edge="1" parent="1">
          <mxGeometry width="50" height="50" relative="1" as="geometry">
            <mxPoint x="60" y="202.5" as="sourcePoint" />
            <mxPoint x="10" y="197.8125" as="targetPoint" />
          </mxGeometry>
        </mxCell>
        <mxCell id="fFiur42xbr7qA2kt1tQ9-11" value="Client..." style="text;html=1;strokeColor=none;fillColor=none;align=center;verticalAlign=middle;whiteSpace=wrap;rounded=0;" vertex="1" parent="1">
          <mxGeometry y="145" width="60" height="30" as="geometry" />
        </mxCell>
      </root>
    </mxGraphModel>
  </diagram>
</mxfile>
